<?xml version="1.0" encoding="UTF-8" standalone="no"?>
<svg
   xmlns:dc="http://purl.org/dc/elements/1.1/"
   xmlns:cc="http://creativecommons.org/ns#"
   xmlns:rdf="http://www.w3.org/1999/02/22-rdf-syntax-ns#"
   xmlns:svg="http://www.w3.org/2000/svg"
   xmlns="http://www.w3.org/2000/svg"
   id="svg8"
   version="1.1"
   viewBox="0 0 12.7 12.7"
   height="48"
   width="48">
  <defs
     id="defs2">
    <marker
       orient="auto"
       refY="0.0"
       refX="0.0"
       id="marker1945"
       style="overflow:visible">
      <g
         id="g1943"
         transform="scale(-1.2)"
         style="stroke:#000000;stroke-opacity:1;fill:#000000;fill-opacity:1">
        <path
           id="path1931"
           d="M -3.8048674,-3.9585227 L 0.54352094,0"
           style="fill:#000000;fill-rule:evenodd;stroke:#000000;stroke-width:0.8;stroke-linecap:round;stroke-opacity:1;fill-opacity:1" />
        <path
           id="path1933"
           d="M -1.2866832,-3.9585227 L 3.0617053,0"
           style="fill:#000000;fill-rule:evenodd;stroke:#000000;stroke-width:0.8;stroke-linecap:round;stroke-opacity:1;fill-opacity:1" />
        <path
           id="path1935"
           d="M 1.3053582,-3.9585227 L 5.6537466,0"
           style="fill:#000000;fill-rule:evenodd;stroke:#000000;stroke-width:0.8;stroke-linecap:round;stroke-opacity:1;fill-opacity:1" />
        <path
           id="path1937"
           d="M -3.8048674,4.1775838 L 0.54352094,0.21974226"
           style="fill:#000000;fill-rule:evenodd;stroke:#000000;stroke-width:0.8;stroke-linecap:round;stroke-opacity:1;fill-opacity:1" />
        <path
           id="path1939"
           d="M -1.2866832,4.1775838 L 3.0617053,0.21974226"
           style="fill:#000000;fill-rule:evenodd;stroke:#000000;stroke-width:0.8;stroke-linecap:round;stroke-opacity:1;fill-opacity:1" />
        <path
           id="path1941"
           d="M 1.3053582,4.1775838 L 5.6537466,0.21974226"
           style="fill:#000000;fill-rule:evenodd;stroke:#000000;stroke-width:0.8;stroke-linecap:round;stroke-opacity:1;fill-opacity:1" />
      </g>
    </marker>
    <marker
       orient="auto"
       refY="0.0"
       refX="0.0"
       id="marker1761"
       style="overflow:visible">
      <g
         id="g1759"
         transform="scale(-1.2)"
         style="stroke:#000000;stroke-opacity:1;fill:#000000;fill-opacity:1">
        <path
           id="path1747"
           d="M -3.8048674,-3.9585227 L 0.54352094,0"
           style="fill:#000000;fill-rule:evenodd;stroke:#000000;stroke-width:0.8;stroke-linecap:round;stroke-opacity:1;fill-opacity:1" />
        <path
           id="path1749"
           d="M -1.2866832,-3.9585227 L 3.0617053,0"
           style="fill:#000000;fill-rule:evenodd;stroke:#000000;stroke-width:0.8;stroke-linecap:round;stroke-opacity:1;fill-opacity:1" />
        <path
           id="path1751"
           d="M 1.3053582,-3.9585227 L 5.6537466,0"
           style="fill:#000000;fill-rule:evenodd;stroke:#000000;stroke-width:0.8;stroke-linecap:round;stroke-opacity:1;fill-opacity:1" />
        <path
           id="path1753"
           d="M -3.8048674,4.1775838 L 0.54352094,0.21974226"
           style="fill:#000000;fill-rule:evenodd;stroke:#000000;stroke-width:0.8;stroke-linecap:round;stroke-opacity:1;fill-opacity:1" />
        <path
           id="path1755"
           d="M -1.2866832,4.1775838 L 3.0617053,0.21974226"
           style="fill:#000000;fill-rule:evenodd;stroke:#000000;stroke-width:0.8;stroke-linecap:round;stroke-opacity:1;fill-opacity:1" />
        <path
           id="path1757"
           d="M 1.3053582,4.1775838 L 5.6537466,0.21974226"
           style="fill:#000000;fill-rule:evenodd;stroke:#000000;stroke-width:0.8;stroke-linecap:round;stroke-opacity:1;fill-opacity:1" />
      </g>
    </marker>
    <marker
       orient="auto"
       refY="0.0"
       refX="0.0"
       id="marker1601"
       style="overflow:visible">
      <g
         id="g1599"
         transform="scale(-1.2)"
         style="stroke:#000000;stroke-opacity:1;fill:#000000;fill-opacity:1">
        <path
           id="path1587"
           d="M -3.8048674,-3.9585227 L 0.54352094,0"
           style="fill:#000000;fill-rule:evenodd;stroke:#000000;stroke-width:0.8;stroke-linecap:round;stroke-opacity:1;fill-opacity:1" />
        <path
           id="path1589"
           d="M -1.2866832,-3.9585227 L 3.0617053,0"
           style="fill:#000000;fill-rule:evenodd;stroke:#000000;stroke-width:0.8;stroke-linecap:round;stroke-opacity:1;fill-opacity:1" />
        <path
           id="path1591"
           d="M 1.3053582,-3.9585227 L 5.6537466,0"
           style="fill:#000000;fill-rule:evenodd;stroke:#000000;stroke-width:0.8;stroke-linecap:round;stroke-opacity:1;fill-opacity:1" />
        <path
           id="path1593"
           d="M -3.8048674,4.1775838 L 0.54352094,0.21974226"
           style="fill:#000000;fill-rule:evenodd;stroke:#000000;stroke-width:0.8;stroke-linecap:round;stroke-opacity:1;fill-opacity:1" />
        <path
           id="path1595"
           d="M -1.2866832,4.1775838 L 3.0617053,0.21974226"
           style="fill:#000000;fill-rule:evenodd;stroke:#000000;stroke-width:0.8;stroke-linecap:round;stroke-opacity:1;fill-opacity:1" />
        <path
           id="path1597"
           d="M 1.3053582,4.1775838 L 5.6537466,0.21974226"
           style="fill:#000000;fill-rule:evenodd;stroke:#000000;stroke-width:0.8;stroke-linecap:round;stroke-opacity:1;fill-opacity:1" />
      </g>
    </marker>
    <marker
       orient="auto"
       refY="0.0"
       refX="0.0"
       id="marker1465"
       style="overflow:visible">
      <g
         id="g1463"
         transform="scale(-1.2)"
         style="stroke:#000000;stroke-opacity:1;fill:#000000;fill-opacity:1">
        <path
           id="path1451"
           d="M -3.8048674,-3.9585227 L 0.54352094,0"
           style="fill:#000000;fill-rule:evenodd;stroke:#000000;stroke-width:0.8;stroke-linecap:round;stroke-opacity:1;fill-opacity:1" />
        <path
           id="path1453"
           d="M -1.2866832,-3.9585227 L 3.0617053,0"
           style="fill:#000000;fill-rule:evenodd;stroke:#000000;stroke-width:0.8;stroke-linecap:round;stroke-opacity:1;fill-opacity:1" />
        <path
           id="path1455"
           d="M 1.3053582,-3.9585227 L 5.6537466,0"
           style="fill:#000000;fill-rule:evenodd;stroke:#000000;stroke-width:0.8;stroke-linecap:round;stroke-opacity:1;fill-opacity:1" />
        <path
           id="path1457"
           d="M -3.8048674,4.1775838 L 0.54352094,0.21974226"
           style="fill:#000000;fill-rule:evenodd;stroke:#000000;stroke-width:0.8;stroke-linecap:round;stroke-opacity:1;fill-opacity:1" />
        <path
           id="path1459"
           d="M -1.2866832,4.1775838 L 3.0617053,0.21974226"
           style="fill:#000000;fill-rule:evenodd;stroke:#000000;stroke-width:0.8;stroke-linecap:round;stroke-opacity:1;fill-opacity:1" />
        <path
           id="path1461"
           d="M 1.3053582,4.1775838 L 5.6537466,0.21974226"
           style="fill:#000000;fill-rule:evenodd;stroke:#000000;stroke-width:0.8;stroke-linecap:round;stroke-opacity:1;fill-opacity:1" />
      </g>
    </marker>
    <marker
       orient="auto"
       refY="0.0"
       refX="0.0"
       id="marker1353"
       style="overflow:visible">
      <g
         id="g1351"
         transform="scale(-1.2)"
         style="stroke:#000000;stroke-opacity:1;fill:#000000;fill-opacity:1">
        <path
           id="path1339"
           d="M -3.8048674,-3.9585227 L 0.54352094,0"
           style="fill:#000000;fill-rule:evenodd;stroke:#000000;stroke-width:0.8;stroke-linecap:round;stroke-opacity:1;fill-opacity:1" />
        <path
           id="path1341"
           d="M -1.2866832,-3.9585227 L 3.0617053,0"
           style="fill:#000000;fill-rule:evenodd;stroke:#000000;stroke-width:0.8;stroke-linecap:round;stroke-opacity:1;fill-opacity:1" />
        <path
           id="path1343"
           d="M 1.3053582,-3.9585227 L 5.6537466,0"
           style="fill:#000000;fill-rule:evenodd;stroke:#000000;stroke-width:0.8;stroke-linecap:round;stroke-opacity:1;fill-opacity:1" />
        <path
           id="path1345"
           d="M -3.8048674,4.1775838 L 0.54352094,0.21974226"
           style="fill:#000000;fill-rule:evenodd;stroke:#000000;stroke-width:0.8;stroke-linecap:round;stroke-opacity:1;fill-opacity:1" />
        <path
           id="path1347"
           d="M -1.2866832,4.1775838 L 3.0617053,0.21974226"
           style="fill:#000000;fill-rule:evenodd;stroke:#000000;stroke-width:0.8;stroke-linecap:round;stroke-opacity:1;fill-opacity:1" />
        <path
           id="path1349"
           d="M 1.3053582,4.1775838 L 5.6537466,0.21974226"
           style="fill:#000000;fill-rule:evenodd;stroke:#000000;stroke-width:0.8;stroke-linecap:round;stroke-opacity:1;fill-opacity:1" />
      </g>
    </marker>
    <marker
       orient="auto"
       refY="0.0"
       refX="0.0"
       id="marker1265"
       style="overflow:visible">
      <g
         id="g1263"
         transform="scale(-1.2)"
         style="stroke:#000000;stroke-opacity:1;fill:#000000;fill-opacity:1">
        <path
           id="path1251"
           d="M -3.8048674,-3.9585227 L 0.54352094,0"
           style="fill:#000000;fill-rule:evenodd;stroke:#000000;stroke-width:0.8;stroke-linecap:round;stroke-opacity:1;fill-opacity:1" />
        <path
           id="path1253"
           d="M -1.2866832,-3.9585227 L 3.0617053,0"
           style="fill:#000000;fill-rule:evenodd;stroke:#000000;stroke-width:0.8;stroke-linecap:round;stroke-opacity:1;fill-opacity:1" />
        <path
           id="path1255"
           d="M 1.3053582,-3.9585227 L 5.6537466,0"
           style="fill:#000000;fill-rule:evenodd;stroke:#000000;stroke-width:0.8;stroke-linecap:round;stroke-opacity:1;fill-opacity:1" />
        <path
           id="path1257"
           d="M -3.8048674,4.1775838 L 0.54352094,0.21974226"
           style="fill:#000000;fill-rule:evenodd;stroke:#000000;stroke-width:0.8;stroke-linecap:round;stroke-opacity:1;fill-opacity:1" />
        <path
           id="path1259"
           d="M -1.2866832,4.1775838 L 3.0617053,0.21974226"
           style="fill:#000000;fill-rule:evenodd;stroke:#000000;stroke-width:0.8;stroke-linecap:round;stroke-opacity:1;fill-opacity:1" />
        <path
           id="path1261"
           d="M 1.3053582,4.1775838 L 5.6537466,0.21974226"
           style="fill:#000000;fill-rule:evenodd;stroke:#000000;stroke-width:0.8;stroke-linecap:round;stroke-opacity:1;fill-opacity:1" />
      </g>
    </marker>
  </defs>
  <metadata
     id="metadata5">
    <rdf:RDF>
      <cc:Work
         rdf:about="">
        <dc:format>image/svg+xml</dc:format>
        <dc:type
           rdf:resource="http://purl.org/dc/dcmitype/StillImage" />
        <dc:title></dc:title>
      </cc:Work>
    </rdf:RDF>
  </metadata>
  <g
     transform="translate(0,-284.29998)"
     id="layer1">
    <path
       id="path2315"
       d="m 2.7395356,290.27213 c 0.1340197,-0.43862 0.2658082,-0.87791 0.3953586,-1.31787 0.081936,-0.27826 0.1632292,-0.55793 0.2042011,-0.84509 0.040972,-0.28716 0.040513,-0.58402 -0.039468,-0.86285 -0.04789,-0.16695 -0.1253322,-0.32776 -0.2426079,-0.45588 -0.1172757,-0.12811 -0.2767029,-0.22163 -0.4492697,-0.24131 -0.1100146,-0.0125 -0.2225732,0.005 -0.3259861,0.0445 -0.103413,0.0396 -0.1978579,0.10083 -0.2805252,0.1745 -0.1653347,0.14733 -0.2819265,0.34116 -0.3818855,0.53877 -0.4296202,0.84933 -0.590975,1.80398 -0.79071746,2.73459 -0.17561452,0.8182 -0.38533776,1.63327 -0.45007078,2.46759 -0.064733,0.83433 0.0246273,1.7024 0.41712418,2.44148 0.34563326,0.65083 0.91968756,1.17429 1.59257646,1.47474 0.6728889,0.30045 1.4399274,0.37897 2.1633314,0.23849 0.9973174,-0.19367 1.8737729,-0.78035 2.6521982,-1.43319 0.7830125,-0.65669 1.4965109,-1.3918 2.1909463,-2.14154 0.7076362,-0.76399 1.3973262,-1.54492 2.1250532,-2.2898 0.203011,-0.2078 0.411137,-0.41555 0.55947,-0.66533 0.07417,-0.12489 0.132739,-0.25986 0.164083,-0.40169 0.03134,-0.14183 0.03493,-0.29076 0.0013,-0.43206 -0.06331,-0.26577 -0.264433,-0.49468 -0.519843,-0.59167 -0.25541,-0.097 -0.557783,-0.0593 -0.781546,0.0975"
       style="fill:none;stroke:#c5a880;stroke-width:0.39687499;stroke-linecap:round;stroke-linejoin:miter;stroke-miterlimit:4;stroke-dasharray:none;stroke-opacity:1" />
    <path
       id="path2319"
       d="m 2.8383753,289.9756 c 1.389201,-1.41324 2.7406522,-2.86358 4.0524268,-4.34897 0.1800761,-0.20391 0.3598354,-0.40892 0.5600915,-0.59305 0.1364486,-0.12546 0.2835488,-0.24182 0.4500509,-0.32328 0.166502,-0.0815 0.3542566,-0.1267 0.5383459,-0.10503 0.1517029,0.0179 0.2976912,0.0815 0.4140507,0.18051 0.1163595,0.099 0.2026489,0.23279 0.2448807,0.37959 0.056416,0.1961 0.032192,0.41412 -0.065894,0.59305"
       style="fill:none;stroke:#c5a880;stroke-width:0.39687499;stroke-linecap:round;stroke-linejoin:miter;stroke-miterlimit:4;stroke-dasharray:none;stroke-opacity:1" />
    <path
       id="path2323"
       d="m 5.9682984,289.34962 c 1.0468018,-1.14145 2.068475,-2.30595 3.0640301,-3.49237 0.2150751,-0.25631 0.4308367,-0.51553 0.6918778,-0.72483 0.1718096,-0.13776 0.3654387,-0.25402 0.5793077,-0.30652 0.213869,-0.0525 0.450164,-0.0362 0.639715,0.0759 0.132082,0.0781 0.236699,0.20015 0.298906,0.34043 0.06221,0.14028 0.08251,0.29802 0.06351,0.45029 -0.02228,0.1785 -0.09696,0.34725 -0.193619,0.49896 -0.09666,0.15171 -0.215174,0.28809 -0.333526,0.42355 -1.1355079,1.29969 -2.3000056,2.57406 -3.4923351,3.82183"
       style="fill:none;stroke:#c5a880;stroke-width:0.39687499;stroke-linecap:round;stroke-linejoin:miter;stroke-miterlimit:4;stroke-dasharray:none;stroke-opacity:1" />
    <path
       id="path2327"
       d="m 10.943229,286.48325 c 0.24534,-0.11924 0.545377,-0.11924 0.790717,0 0.110162,0.0535 0.209674,0.13017 0.285474,0.22638 0.0758,0.0962 0.127373,0.21221 0.142831,0.33371 0.02208,0.17356 -0.02978,0.35011 -0.114003,0.50346 -0.08422,0.15336 -0.199522,0.287 -0.314302,0.41905 -1.035328,1.19106 -2.1010629,2.35569 -3.195816,3.49237"
       style="fill:none;stroke:#c5a880;stroke-width:0.39687499;stroke-linecap:round;stroke-linejoin:miter;stroke-miterlimit:4;stroke-dasharray:none;stroke-opacity:1" />
    <path
       id="path2331-8"
       d="m 4.3447824,292.02646 c -0.093597,-0.24141 -0.2523545,-0.45719 -0.4549647,-0.61839 -0.2026103,-0.1612 -0.448552,-0.26741 -0.7048163,-0.30436 -0.2309104,-0.0333 -0.4703594,-0.0104 -0.6889675,0.0711 -0.2186081,0.0815 -0.4156716,0.22187 -0.5600273,0.40514 -0.2267877,0.28793 -0.3143881,0.67285 -0.2699995,1.03667 0.044388,0.36383 0.2136713,0.70599 0.4484271,0.98746 0.3442393,0.41274 0.8159288,0.69378 1.2489951,1.01207 0.3160502,0.23229 0.6151029,0.4877 0.8939777,0.76352"
       style="fill:none;stroke:#c5a880;stroke-width:0.39687499;stroke-linecap:round;stroke-linejoin:miter;stroke-miterlimit:4;stroke-dasharray:none;stroke-opacity:1" />
    <path
       id="path2331-8-4"
       d="m 4.2824364,292.04892 c 0.093727,-0.24133 0.252519,-0.45703 0.4551079,-0.61822 0.2025888,-0.16119 0.4484561,-0.26745 0.7046732,-0.30455 0.2309374,-0.0334 0.470464,-0.0107 0.6891356,0.0708 0.2186717,0.0814 0.4157751,0.22196 0.5598594,0.40551 0.2261068,0.28804 0.3124508,0.67285 0.2676843,1.03629 -0.044767,0.36343 -0.2134162,0.7051 -0.4461121,0.98784 -0.3416987,0.41519 -0.8091702,0.70273 -1.2489951,1.01207 -0.3252432,0.22875 -0.6395052,0.47312 -0.9413421,0.73197"
       style="fill:none;stroke:#c5a880;stroke-width:0.39687499;stroke-linecap:round;stroke-linejoin:miter;stroke-miterlimit:4;stroke-dasharray:none;stroke-opacity:1" />
  </g>
</svg>
